# Blender v2.79 (sub 0) OBJ File: 'Arrow.blend'
# www.blender.org
mtllib arrowsmartfixed.mtl
o Cube
v 0.500000 -1.000000 -1.000000
v 0.500000 -1.000000 1.000000
v -0.500000 -1.000000 1.000000
v -0.500000 -1.000000 -1.000000
v 0.500000 1.000000 -0.999999
v 0.500000 1.000000 1.000001
v -0.500000 1.000000 1.000000
v -0.500000 1.000000 -1.000000
v 0.500000 2.500000 0.000001
v -0.500000 2.500000 0.000000
v 0.499999 1.000000 2.000000
v -0.500000 1.000000 2.000000
v 0.500000 1.000000 -2.000000
v -0.500000 1.000000 -2.000000
vt 0.422535 0.507042
vt 0.281690 0.788732
vt 0.281690 0.507042
vt 0.422535 0.788733
vt 0.563380 0.929577
vt 0.422535 0.929578
vt 0.859375 0.445312
vt 0.578125 0.164062
vt 0.859375 0.164062
vt 0.140845 0.507042
vt 0.140845 0.788732
vt 0.421875 0.281250
vt 0.140625 0.000000
vt 0.421875 0.000000
vt 0.281690 0.788732
vt 0.422535 0.957747
vt 0.281690 0.957747
vt 0.578125 0.445312
vt 0.718750 0.656250
vt 0.140625 0.281250
vt 0.281250 0.492188
vt 0.000000 0.281250
vt 0.562500 0.281250
vt 0.437500 0.445312
vt 0.140845 0.788733
vt 0.281690 1.000000
vt 0.140845 1.000000
vt 0.140845 0.507042
vt 0.000000 0.859155
vt 0.000000 0.507042
vt 0.563380 0.647887
vt 0.422535 0.788732
vt 0.422535 0.647887
vt 1.000000 0.445312
vt 0.422535 0.788732
vt 0.563380 0.788732
vt 0.281690 0.507042
vt 0.422535 0.788732
vt 0.281690 0.788732
vt 0.140845 0.859155
vt 0.563380 0.788732
vn 0.0000 -1.0000 0.0000
vn 1.0000 -0.0000 0.0000
vn 0.0000 -0.0000 1.0000
vn -1.0000 -0.0000 -0.0000
vn 0.0000 0.0000 -1.0000
vn -0.0000 0.8000 0.6000
vn 0.0000 0.8000 -0.6000
usemtl Material
s off
f 1/1/1 3/2/1 4/3/1
f 6/4/1 12/5/1 7/6/1
f 5/7/2 2/8/2 1/9/2
f 6/10/3 3/2/3 2/11/3
f 7/12/4 4/13/4 3/14/4
f 1/15/5 8/16/5 5/17/5
f 6/18/2 5/7/2 9/19/2
f 8/20/4 7/12/4 10/21/4
f 8/20/4 10/21/4 14/22/4
f 10/21/4 7/12/4 12/23/4
f 6/18/2 9/19/2 11/24/2
f 9/25/6 12/26/6 11/27/6
f 9/28/7 14/29/7 10/30/7
f 8/31/1 13/32/1 5/33/1
f 9/19/2 5/7/2 13/34/2
f 1/1/1 2/35/1 3/2/1
f 6/4/1 11/36/1 12/5/1
f 5/7/2 6/18/2 2/8/2
f 6/10/3 7/37/3 3/2/3
f 7/12/4 8/20/4 4/13/4
f 1/15/5 4/38/5 8/16/5
f 9/25/6 10/39/6 12/26/6
f 9/28/7 13/40/7 14/29/7
f 8/31/1 14/41/1 13/32/1
